<svg aria-hidden="true" style="position: absolute; width: 0; height: 0; overflow: hidden;" version="1.1" xmlns="http://www.w3.org/2000/svg" xmlns:xlink="http://www.w3.org/1999/xlink">
<defs>
<symbol id="icon-close-button" viewBox="0 0 32 32">
<path stroke-linejoin="round" stroke-linecap="round" stroke-miterlimit="4" stroke-width="2.6667" d="M24 8l-16 16"></path>
<path stroke-linejoin="round" stroke-linecap="round" stroke-miterlimit="4" stroke-width="2.6667" d="M8 8l16 16"></path>
</symbol>
<symbol id="icon-mastercard" viewBox="0 0 50 32">
<path fill="#ed0006" style="fill: var(--color1, #ed0006)" d="M25.143 28.078c-2.656 2.194-6.102 3.518-9.867 3.518-8.401 0-15.211-6.593-15.211-14.726s6.81-14.726 15.211-14.726c3.765 0 7.21 1.324 9.867 3.518 2.656-2.194 6.102-3.518 9.866-3.518 8.401 0 15.211 6.593 15.211 14.726s-6.81 14.726-15.211 14.726c-3.765 0-7.21-1.324-9.867-3.518z"></path>
<path fill="#f9a000" style="fill: var(--color2, #f9a000)" d="M25.143 28.078c3.271-2.701 5.344-6.72 5.344-11.208s-2.074-8.507-5.344-11.208c2.656-2.194 6.102-3.518 9.866-3.518 8.401 0 15.211 6.593 15.211 14.726s-6.81 14.726-15.211 14.726c-3.765 0-7.21-1.324-9.867-3.518z"></path>
<path fill="#ff5e00" style="fill: var(--color3, #ff5e00)" d="M25.143 28.078c3.271-2.701 5.344-6.72 5.344-11.208s-2.074-8.507-5.344-11.208c-3.271 2.701-5.344 6.72-5.344 11.208s2.074 8.507 5.344 11.208z"></path>
</symbol>
<symbol id="icon-country-flag" viewBox="0 0 40 32">
<path fill="#ffd700" style="fill: var(--color1, #ffd700)" d="M40.209 0.495h-39.902v29.695h39.902v-29.695z"></path>
<path fill="#0057b7" style="fill: var(--color2, #0057b7)" d="M0.307 0.495h39.902v14.847h-39.902v-14.847z"></path>
</symbol>
</defs>
</svg>
